<svg width="996" height="357" viewBox="0 0 996 357" fill="none" xmlns="http://www.w3.org/2000/svg">
<path d="M174.368 0H123.545V56.9137H178.66C189.732 56.9137 200.169 67.2661 200.169 79.5626V105.808H261.576V82.5759C261.576 34.8481 224.752 0 174.416 0L174.368 0Z" fill="white"/>
<path d="M179.246 150.523C133.837 149.939 61.4068 162.09 61.4068 126.027V102.746H0V122.382C0 170.741 37.4586 203.742 87.1596 205.589C132.617 206.804 205.096 194.557 205.096 230.62V276.549C205.096 288.749 194.609 299.198 183.586 299.198H123.545V356.112H179.246C229.581 356.112 266.503 321.215 266.503 273.487V233.682C266.503 185.371 228.41 151.738 179.246 150.523Z" fill="white"/>
<path d="M927.699 132.447V167.234H928.972C935.759 154.507 943.254 145.174 951.456 139.234C959.658 133.012 969.981 129.901 982.425 129.901C988.364 129.901 992.889 130.467 996 131.598V182.082H994.727C975.213 180.102 959.516 184.344 947.638 194.809C935.759 205.273 929.82 221.676 929.82 244.019V350.077H872.125V132.447H927.699Z" fill="white"/>
<path d="M721.431 350.076L645.918 132.446H704.462L739.249 245.291L749.006 280.078H749.854C751.834 270.745 754.945 259.15 759.187 245.291L794.823 132.446H852.518L776.581 350.076H721.431Z" fill="white"/>
<path d="M568.057 350.076V46.752H625.752V350.076H568.057Z" fill="white"/>
<path d="M508.57 323.774C487.359 345.551 460.066 356.44 426.694 356.44C393.321 356.44 366.029 345.551 344.817 323.774C323.606 301.714 313 274.28 313 241.473C313 208.666 323.606 181.374 344.817 159.597C366.029 137.537 393.321 126.507 426.694 126.507C460.066 126.507 487.359 137.537 508.57 159.597C529.782 181.374 540.387 208.666 540.387 241.473C540.387 274.28 529.782 301.714 508.57 323.774ZM426.694 312.32C443.946 312.32 457.38 305.956 466.996 293.229C476.894 280.22 481.844 262.967 481.844 241.473C481.844 219.979 476.894 202.727 466.996 189.717C457.38 176.707 443.946 170.203 426.694 170.203C409.159 170.203 395.583 176.707 385.968 189.717C376.352 202.444 371.544 219.696 371.544 241.473C371.544 262.967 376.352 280.22 385.968 293.229C395.583 305.956 409.159 312.32 426.694 312.32Z" fill="white"/>
</svg>
